<?xml version="1.0" encoding="utf-8"?>
<!-- Generator: Adobe Illustrator 22.1.0, SVG Export Plug-In . SVG Version: 6.00 Build 0)  -->
<svg version="1.1" id="Camada_1" xmlns="http://www.w3.org/2000/svg" xmlns:xlink="http://www.w3.org/1999/xlink" x="0px" y="0px"
	 viewBox="0 0 1920 1080" style="enable-background:new 0 0 1920 1080;" xml:space="preserve">
<style type="text/css">
	.st0{fill:#FFFFFF;}
</style>
<g>
	<g>
		<path class="st0" d="M342.9,430.5h-29l-51.3,167.6h-45.7l51.3-167.6H239l9.7-31h103.9L342.9,430.5z"/>
		<path class="st0" d="M389.3,598.1h-81.5l60.7-198.6H450l-9.5,31h-35.8l-15.1,50.2h28.8l-9.5,31h-29L363,567.1h36L389.3,598.1z"/>
		<path class="st0" d="M543.9,598.1h-44l9.2-67.5h-28.3l-31.8,67.5h-44L508,399.5h54.2L543.9,598.1z M513.7,499.6l7.3-54.2
			l-25.4,54.2H513.7z"/>
		<path class="st0" d="M706.6,598.1h-29.9L708,495.7l-55.9,102.4h-37l6.7-102.4l-31.6,102.4h-29.6l60.7-198.6h51l-6.5,92.8
			l50.7-92.8h50.8L706.6,598.1z"/>
		<path class="st0" d="M937.9,573.3c-6.1,19.8-26.5,29.4-61.3,28.9c-14.8-0.2-25.5-1.7-32.1-4.6c-7.6-3.2-11.3-8.7-11.3-16.5
			c0-3.4,0.6-7.2,1.9-11.3l44.3-144.4c2.9-9.5,10.8-16.9,23.7-22.1c10.6-4.5,22.3-6.7,35.1-6.7c24.3,0,41.3,2.9,51,8.6l-23.2,76.1
			h-45.4l13-42.6c0.4-1.1,0.6-2.1,0.6-3c0-3.1-1.5-4.6-4.6-4.6c-4.3,0-7.2,2.5-8.8,7.6l-38.3,126c-0.4,0.7-0.6,1.3-0.6,1.9
			c0,2.7,1.7,4,5.1,4c4.1,0,6.8-2,8-6l17.4-56.1h45.4L937.9,573.3z"/>
		<path class="st0" d="M1086.8,598.1h-44l9.2-67.5h-28.3l-31.8,67.5h-44l103.1-198.6h54.2L1086.8,598.1z M1056.6,499.6l7.3-54.2
			l-25.4,54.2H1056.6z"/>
		<path class="st0" d="M1226.8,430.5h-29l-51.3,167.6h-45.7l51.3-167.6H1123l9.7-31h103.9L1226.8,430.5z"/>
		<path class="st0" d="M1304.9,573.3c-6.1,19.8-26.5,29.4-61.3,28.9c-14.8-0.2-25.5-1.7-32.1-4.6c-7.6-3.2-11.3-8.7-11.3-16.5
			c0-3.4,0.6-7.2,1.9-11.3l44.3-144.4c2.9-9.5,10.8-16.9,23.7-22.1c10.6-4.5,22.3-6.7,35.1-6.7c24.3,0,41.3,2.9,51,8.6l-23.2,76.1
			h-45.4l13-42.6c0.4-1.1,0.6-2.1,0.6-3c0-3.1-1.5-4.6-4.6-4.6c-4.3,0-7.2,2.5-8.8,7.6l-38.3,126c-0.4,0.7-0.6,1.3-0.6,1.9
			c0,2.7,1.7,4,5.1,4c4.1,0,6.8-2,8-6l17.4-56.1h45.4L1304.9,573.3z"/>
		<path class="st0" d="M1437.6,598.1h-45.7l26.5-86.3h-29.3l-26.4,86.3H1317l60.7-198.6h45.7l-24.8,81.2h29.1l24.9-81.2h46
			L1437.6,598.1z"/>
		<path class="st0" d="M1537.7,598.1h-81.5l60.7-198.6h81.5l-9.5,31h-35.8l-15.1,50.2h28.8l-9.5,31h-29l-16.9,55.3h36L1537.7,598.1z
			"/>
		<path class="st0" d="M1660.5,598.1h-45.6c-1.6-5.4-1.5-11.4,0.5-18.1l18-58c0.1-1.3,0.2-2.4,0.2-3.5c0-4.7-3.2-7-9.6-7l-26.5,86.6
			h-44.3l60.7-198.6h73.4c13.1,0,19.7,6.5,19.7,19.4c0,3.6-0.5,7.5-1.6,11.6c-0.5,2.5-4,14.1-10.5,34.8
			c-6.1,19.8-14.8,29.5-26.2,29.1c5.9,4,8.9,10.9,8.9,20.8c0,2.5-0.2,5.2-0.5,8.1l-17.3,56.7C1658.4,584,1658.7,590,1660.5,598.1z
			 M1649.6,468l9.4-29.9c0.3-1.4,0.5-2.7,0.5-3.8c0-5.1-3.2-7.8-9.5-8.1l-16.7,54.4C1641.5,481,1646.9,476.8,1649.6,468z"/>
	</g>
	<polygon class="st0" points="213.1,643.8 1660.1,643.8 1618.5,730.6 	"/>
</g>
</svg>
